G04 #@! TF.GenerationSoftware,KiCad,Pcbnew,(2017-06-16 revision 2018d4894)-master*
G04 #@! TF.CreationDate,2017-08-16T14:09:36+02:00*
G04 #@! TF.ProjectId,LT3090_breakout,4C54333039305F627265616B6F75742E,rev?*
G04 #@! TF.SameCoordinates,Original
G04 #@! TF.FileFunction,Legend,Top*
G04 #@! TF.FilePolarity,Positive*
%FSLAX46Y46*%
G04 Gerber Fmt 4.6, Leading zero omitted, Abs format (unit mm)*
G04 Created by KiCad (PCBNEW (2017-06-16 revision 2018d4894)-master) date Wed Aug 16 14:09:36 2017*
%MOMM*%
%LPD*%
G01*
G04 APERTURE LIST*
%ADD10C,0.100000*%
%ADD11C,0.150000*%
%ADD12C,0.120000*%
G04 APERTURE END LIST*
D10*
D11*
X118100000Y-98861904D02*
X118100000Y-98061904D01*
X122423809Y-99861904D02*
X122576190Y-99861904D01*
X122652380Y-99900000D01*
X122728571Y-99976190D01*
X122766666Y-100128571D01*
X122766666Y-100395238D01*
X122728571Y-100547619D01*
X122652380Y-100623809D01*
X122576190Y-100661904D01*
X122423809Y-100661904D01*
X122347619Y-100623809D01*
X122271428Y-100547619D01*
X122233333Y-100395238D01*
X122233333Y-100128571D01*
X122271428Y-99976190D01*
X122347619Y-99900000D01*
X122423809Y-99861904D01*
X114009523Y-99800000D02*
X113933333Y-99761904D01*
X113819047Y-99761904D01*
X113704761Y-99800000D01*
X113628571Y-99876190D01*
X113590476Y-99952380D01*
X113552380Y-100104761D01*
X113552380Y-100219047D01*
X113590476Y-100371428D01*
X113628571Y-100447619D01*
X113704761Y-100523809D01*
X113819047Y-100561904D01*
X113895238Y-100561904D01*
X114009523Y-100523809D01*
X114047619Y-100485714D01*
X114047619Y-100219047D01*
X113895238Y-100219047D01*
X122761904Y-97047619D02*
X122380952Y-97314285D01*
X122761904Y-97504761D02*
X121961904Y-97504761D01*
X121961904Y-97200000D01*
X122000000Y-97123809D01*
X122038095Y-97085714D01*
X122114285Y-97047619D01*
X122228571Y-97047619D01*
X122304761Y-97085714D01*
X122342857Y-97123809D01*
X122380952Y-97200000D01*
X122380952Y-97504761D01*
X122723809Y-96742857D02*
X122761904Y-96666666D01*
X122761904Y-96514285D01*
X122723809Y-96438095D01*
X122647619Y-96400000D01*
X122609523Y-96400000D01*
X122533333Y-96438095D01*
X122495238Y-96514285D01*
X122495238Y-96628571D01*
X122457142Y-96704761D01*
X122380952Y-96742857D01*
X122342857Y-96742857D01*
X122266666Y-96704761D01*
X122228571Y-96628571D01*
X122228571Y-96514285D01*
X122266666Y-96438095D01*
X122723809Y-95752380D02*
X122761904Y-95828571D01*
X122761904Y-95980952D01*
X122723809Y-96057142D01*
X122647619Y-96095238D01*
X122342857Y-96095238D01*
X122266666Y-96057142D01*
X122228571Y-95980952D01*
X122228571Y-95828571D01*
X122266666Y-95752380D01*
X122342857Y-95714285D01*
X122419047Y-95714285D01*
X122495238Y-96095238D01*
X122228571Y-95485714D02*
X122228571Y-95180952D01*
X121961904Y-95371428D02*
X122647619Y-95371428D01*
X122723809Y-95333333D01*
X122761904Y-95257142D01*
X122761904Y-95180952D01*
X114061904Y-97385714D02*
X113680952Y-97652380D01*
X114061904Y-97842857D02*
X113261904Y-97842857D01*
X113261904Y-97538095D01*
X113300000Y-97461904D01*
X113338095Y-97423809D01*
X113414285Y-97385714D01*
X113528571Y-97385714D01*
X113604761Y-97423809D01*
X113642857Y-97461904D01*
X113680952Y-97538095D01*
X113680952Y-97842857D01*
X114061904Y-96928571D02*
X114023809Y-97004761D01*
X113947619Y-97042857D01*
X113261904Y-97042857D01*
X114061904Y-96623809D02*
X113528571Y-96623809D01*
X113261904Y-96623809D02*
X113300000Y-96661904D01*
X113338095Y-96623809D01*
X113300000Y-96585714D01*
X113261904Y-96623809D01*
X113338095Y-96623809D01*
X114061904Y-96242857D02*
X113528571Y-96242857D01*
X113604761Y-96242857D02*
X113566666Y-96204761D01*
X113528571Y-96128571D01*
X113528571Y-96014285D01*
X113566666Y-95938095D01*
X113642857Y-95900000D01*
X114061904Y-95900000D01*
X113642857Y-95900000D02*
X113566666Y-95861904D01*
X113528571Y-95785714D01*
X113528571Y-95671428D01*
X113566666Y-95595238D01*
X113642857Y-95557142D01*
X114061904Y-95557142D01*
D12*
X115000000Y-96520000D02*
X116000000Y-96520000D01*
X116000000Y-97880000D02*
X115000000Y-97880000D01*
X121780000Y-96300000D02*
X121780000Y-97300000D01*
X120420000Y-97300000D02*
X120420000Y-96300000D01*
X121970000Y-98930000D02*
X121970000Y-100200000D01*
X120700000Y-98930000D02*
X121970000Y-98930000D01*
X115240000Y-101242929D02*
X115240000Y-101640000D01*
X116000000Y-101242929D02*
X116000000Y-101640000D01*
X115240000Y-110300000D02*
X115240000Y-104300000D01*
X116000000Y-110300000D02*
X115240000Y-110300000D01*
X116000000Y-104300000D02*
X116000000Y-110300000D01*
X116890000Y-101640000D02*
X116890000Y-104300000D01*
X117780000Y-101242929D02*
X117780000Y-101640000D01*
X118540000Y-101242929D02*
X118540000Y-101640000D01*
X117780000Y-110300000D02*
X117780000Y-104300000D01*
X118540000Y-110300000D02*
X117780000Y-110300000D01*
X118540000Y-104300000D02*
X118540000Y-110300000D01*
X119430000Y-101640000D02*
X119430000Y-104300000D01*
X120320000Y-101310000D02*
X120320000Y-101640000D01*
X121080000Y-101310000D02*
X121080000Y-101640000D01*
X120420000Y-104300000D02*
X120420000Y-110300000D01*
X120540000Y-104300000D02*
X120540000Y-110300000D01*
X120660000Y-104300000D02*
X120660000Y-110300000D01*
X120780000Y-104300000D02*
X120780000Y-110300000D01*
X120900000Y-104300000D02*
X120900000Y-110300000D01*
X121020000Y-104300000D02*
X121020000Y-110300000D01*
X120320000Y-110300000D02*
X120320000Y-104300000D01*
X121080000Y-110300000D02*
X120320000Y-110300000D01*
X121080000Y-104300000D02*
X121080000Y-110300000D01*
X122030000Y-104300000D02*
X122030000Y-101640000D01*
X114290000Y-104300000D02*
X122030000Y-104300000D01*
X114290000Y-101640000D02*
X114290000Y-104300000D01*
X122030000Y-101640000D02*
X114290000Y-101640000D01*
X118550000Y-96500000D02*
X119250000Y-96500000D01*
X119250000Y-97700000D02*
X118550000Y-97700000D01*
X115400000Y-94100000D02*
X115400000Y-94800000D01*
X114200000Y-94800000D02*
X114200000Y-94100000D01*
X120450000Y-94200000D02*
X120450000Y-93500000D01*
X121650000Y-93500000D02*
X121650000Y-94200000D01*
D11*
X116000000Y-92850000D02*
X119175000Y-92850000D01*
X116725000Y-96150000D02*
X119175000Y-96150000D01*
M02*
