G04 #@! TF.GenerationSoftware,KiCad,Pcbnew,(2017-06-16 revision 2018d4894)-master*
G04 #@! TF.CreationDate,2017-08-16T14:09:36+02:00*
G04 #@! TF.ProjectId,LT3090_breakout,4C54333039305F627265616B6F75742E,rev?*
G04 #@! TF.SameCoordinates,Original
G04 #@! TF.FileFunction,Copper,L2,Bot,Signal*
G04 #@! TF.FilePolarity,Positive*
%FSLAX46Y46*%
G04 Gerber Fmt 4.6, Leading zero omitted, Abs format (unit mm)*
G04 Created by KiCad (PCBNEW (2017-06-16 revision 2018d4894)-master) date Wed Aug 16 14:09:36 2017*
%MOMM*%
%LPD*%
G01*
G04 APERTURE LIST*
%ADD10C,0.100000*%
%ADD11O,1.700000X1.700000*%
%ADD12R,1.700000X1.700000*%
%ADD13C,0.600000*%
%ADD14C,0.150000*%
G04 APERTURE END LIST*
D10*
D11*
X115620000Y-100200000D03*
X118160000Y-100200000D03*
D12*
X120700000Y-100200000D03*
D13*
X114700000Y-98000000D03*
X114100000Y-93700000D03*
X118100000Y-92300000D03*
X122300000Y-88100000D03*
X122300000Y-90100000D03*
X122300000Y-89100000D03*
X121500000Y-90100000D03*
X121500000Y-89100000D03*
X121500000Y-88100000D03*
X120500000Y-88100000D03*
X120500000Y-89100000D03*
X120500000Y-90100000D03*
X120500000Y-91100000D03*
X115700000Y-88100000D03*
X115700000Y-89100000D03*
X114700000Y-88100000D03*
X114700000Y-89100000D03*
X113900000Y-88100000D03*
X113900000Y-89100000D03*
X113900000Y-90100000D03*
X115700000Y-90100000D03*
X114700000Y-90100000D03*
X115700000Y-91100000D03*
X118150000Y-94550000D03*
X117500000Y-95900000D03*
X119500000Y-92600000D03*
X116700000Y-92600000D03*
X118500000Y-93100000D03*
X117700000Y-93100000D03*
X117762500Y-95170000D03*
X118537500Y-93930000D03*
X117762500Y-93930000D03*
X118800000Y-95900000D03*
X118537500Y-95170000D03*
D14*
G36*
X122900000Y-101300000D02*
X113300000Y-101300000D01*
X113300000Y-100178940D01*
X114545000Y-100178940D01*
X114545000Y-100221060D01*
X114626830Y-100632445D01*
X114859860Y-100981200D01*
X115208615Y-101214230D01*
X115620000Y-101296060D01*
X116031385Y-101214230D01*
X116380140Y-100981200D01*
X116613170Y-100632445D01*
X116631037Y-100542618D01*
X117141041Y-100542618D01*
X117349719Y-100906476D01*
X117681755Y-101162780D01*
X117817385Y-101218940D01*
X117981000Y-101202901D01*
X117981000Y-100379000D01*
X118339000Y-100379000D01*
X118339000Y-101202901D01*
X118502615Y-101218940D01*
X118638245Y-101162780D01*
X118970281Y-100906476D01*
X119178959Y-100542618D01*
X119163761Y-100379000D01*
X118339000Y-100379000D01*
X117981000Y-100379000D01*
X117156239Y-100379000D01*
X117141041Y-100542618D01*
X116631037Y-100542618D01*
X116695000Y-100221060D01*
X116695000Y-100178940D01*
X116631038Y-99857382D01*
X117141041Y-99857382D01*
X117156239Y-100021000D01*
X117981000Y-100021000D01*
X117981000Y-99197099D01*
X118339000Y-99197099D01*
X118339000Y-100021000D01*
X119163761Y-100021000D01*
X119178959Y-99857382D01*
X118970281Y-99493524D01*
X118784349Y-99350000D01*
X119620592Y-99350000D01*
X119620592Y-101050000D01*
X119638055Y-101137791D01*
X119687784Y-101212216D01*
X119762209Y-101261945D01*
X119850000Y-101279408D01*
X121550000Y-101279408D01*
X121637791Y-101261945D01*
X121712216Y-101212216D01*
X121761945Y-101137791D01*
X121779408Y-101050000D01*
X121779408Y-99350000D01*
X121761945Y-99262209D01*
X121712216Y-99187784D01*
X121637791Y-99138055D01*
X121550000Y-99120592D01*
X119850000Y-99120592D01*
X119762209Y-99138055D01*
X119687784Y-99187784D01*
X119638055Y-99262209D01*
X119620592Y-99350000D01*
X118784349Y-99350000D01*
X118638245Y-99237220D01*
X118502615Y-99181060D01*
X118339000Y-99197099D01*
X117981000Y-99197099D01*
X117817385Y-99181060D01*
X117681755Y-99237220D01*
X117349719Y-99493524D01*
X117141041Y-99857382D01*
X116631038Y-99857382D01*
X116613170Y-99767555D01*
X116380140Y-99418800D01*
X116031385Y-99185770D01*
X115620000Y-99103940D01*
X115208615Y-99185770D01*
X114859860Y-99418800D01*
X114626830Y-99767555D01*
X114545000Y-100178940D01*
X113300000Y-100178940D01*
X113300000Y-89800000D01*
X116000000Y-89800000D01*
X116159853Y-90603635D01*
X116615076Y-91284924D01*
X117296365Y-91740147D01*
X118100000Y-91900000D01*
X118903635Y-91740147D01*
X119584924Y-91284924D01*
X120040147Y-90603635D01*
X120200000Y-89800000D01*
X120040147Y-88996365D01*
X119584924Y-88315076D01*
X118903635Y-87859853D01*
X118100000Y-87700000D01*
X117296365Y-87859853D01*
X116615076Y-88315076D01*
X116159853Y-88996365D01*
X116000000Y-89800000D01*
X113300000Y-89800000D01*
X113300000Y-87300000D01*
X122900000Y-87300000D01*
X122900000Y-101300000D01*
X122900000Y-101300000D01*
G37*
X122900000Y-101300000D02*
X113300000Y-101300000D01*
X113300000Y-100178940D01*
X114545000Y-100178940D01*
X114545000Y-100221060D01*
X114626830Y-100632445D01*
X114859860Y-100981200D01*
X115208615Y-101214230D01*
X115620000Y-101296060D01*
X116031385Y-101214230D01*
X116380140Y-100981200D01*
X116613170Y-100632445D01*
X116631037Y-100542618D01*
X117141041Y-100542618D01*
X117349719Y-100906476D01*
X117681755Y-101162780D01*
X117817385Y-101218940D01*
X117981000Y-101202901D01*
X117981000Y-100379000D01*
X118339000Y-100379000D01*
X118339000Y-101202901D01*
X118502615Y-101218940D01*
X118638245Y-101162780D01*
X118970281Y-100906476D01*
X119178959Y-100542618D01*
X119163761Y-100379000D01*
X118339000Y-100379000D01*
X117981000Y-100379000D01*
X117156239Y-100379000D01*
X117141041Y-100542618D01*
X116631037Y-100542618D01*
X116695000Y-100221060D01*
X116695000Y-100178940D01*
X116631038Y-99857382D01*
X117141041Y-99857382D01*
X117156239Y-100021000D01*
X117981000Y-100021000D01*
X117981000Y-99197099D01*
X118339000Y-99197099D01*
X118339000Y-100021000D01*
X119163761Y-100021000D01*
X119178959Y-99857382D01*
X118970281Y-99493524D01*
X118784349Y-99350000D01*
X119620592Y-99350000D01*
X119620592Y-101050000D01*
X119638055Y-101137791D01*
X119687784Y-101212216D01*
X119762209Y-101261945D01*
X119850000Y-101279408D01*
X121550000Y-101279408D01*
X121637791Y-101261945D01*
X121712216Y-101212216D01*
X121761945Y-101137791D01*
X121779408Y-101050000D01*
X121779408Y-99350000D01*
X121761945Y-99262209D01*
X121712216Y-99187784D01*
X121637791Y-99138055D01*
X121550000Y-99120592D01*
X119850000Y-99120592D01*
X119762209Y-99138055D01*
X119687784Y-99187784D01*
X119638055Y-99262209D01*
X119620592Y-99350000D01*
X118784349Y-99350000D01*
X118638245Y-99237220D01*
X118502615Y-99181060D01*
X118339000Y-99197099D01*
X117981000Y-99197099D01*
X117817385Y-99181060D01*
X117681755Y-99237220D01*
X117349719Y-99493524D01*
X117141041Y-99857382D01*
X116631038Y-99857382D01*
X116613170Y-99767555D01*
X116380140Y-99418800D01*
X116031385Y-99185770D01*
X115620000Y-99103940D01*
X115208615Y-99185770D01*
X114859860Y-99418800D01*
X114626830Y-99767555D01*
X114545000Y-100178940D01*
X113300000Y-100178940D01*
X113300000Y-89800000D01*
X116000000Y-89800000D01*
X116159853Y-90603635D01*
X116615076Y-91284924D01*
X117296365Y-91740147D01*
X118100000Y-91900000D01*
X118903635Y-91740147D01*
X119584924Y-91284924D01*
X120040147Y-90603635D01*
X120200000Y-89800000D01*
X120040147Y-88996365D01*
X119584924Y-88315076D01*
X118903635Y-87859853D01*
X118100000Y-87700000D01*
X117296365Y-87859853D01*
X116615076Y-88315076D01*
X116159853Y-88996365D01*
X116000000Y-89800000D01*
X113300000Y-89800000D01*
X113300000Y-87300000D01*
X122900000Y-87300000D01*
X122900000Y-101300000D01*
M02*
